<?xml version="1.0" encoding="UTF-8" standalone="no"?>
<!-- Generator: Adobe Illustrator 17.1.0, SVG Export Plug-In . SVG Version: 6.00 Build 0)  -->
<svg id="Layer_1" xmlns="http://www.w3.org/2000/svg" xml:space="preserve" viewBox="0 0 227.3 163.3" baseProfile="tiny" version="1.2" y="0px" x="0px" xmlns:xlink="http://www.w3.org/1999/xlink">
<path d="m23.2 60.8c-1.7 0-3.3-0.2-4.6-0.5-1.4-0.3-2.6-0.7-3.7-1.3s-2.2-1.3-3.1-2.1-1.9-1.7-2.7-2.8l-0.3-0.3 0.4-0.4 0.2-0.2c0.1-0.1 0.3-0.1 0.5-0.1 0.3 0 0.6 0.2 1 0.6 0.3 0.3 0.6 0.7 1.1 1.1 0.5 0.5 1 0.9 1.7 1.4 0.6 0.5 1.4 1 2.3 1.4s2 0.8 3.2 1.1 2.5 0.4 4.1 0.4c2.2 0 4.2-0.4 5.9-1.1s3.2-1.7 4.4-2.9 2.1-2.6 2.7-4.2 0.9-3.3 0.9-5.1c0-1.5-0.2-2.8-0.7-3.9s-1.1-2-1.9-2.8-1.7-1.5-2.8-2c-1.1-0.6-2.2-1.1-3.5-1.5-1.2-0.5-2.5-0.9-3.8-1.3s-2.6-0.8-3.9-1.3-2.5-1-3.6-1.6-2.1-1.4-3-2.3-1.6-2-2.1-3.2-0.8-2.7-0.8-4.4c0-1.6 0.3-3.2 0.9-4.7s1.5-2.9 2.7-4c1.2-1.2 2.6-2.1 4.4-2.8 1.7-0.7 3.7-1 5.9-1 2.5 0 4.7 0.4 6.6 1.2s3.7 2.1 5.4 3.8l0.3 0.3-0.3 0.6c-0.3 0.4-0.6 0.4-0.8 0.4-0.4 0-0.8-0.3-1.3-0.9-0.4-0.5-1-1-1.8-1.5s-1.9-1.1-3.1-1.5c-1.3-0.5-2.9-0.7-4.8-0.7-2 0-3.7 0.3-5.2 0.9s-2.8 1.4-3.8 2.4-1.8 2.2-2.3 3.5c-0.5 1.3-0.8 2.7-0.8 4.1 0 1.8 0.4 3.4 1.1 4.6s1.7 2.3 2.8 3.1c1.2 0.8 2.5 1.6 4 2.1 1.5 0.6 3.1 1.1 4.7 1.7 1.6 0.5 3.2 1.1 4.8 1.7s3 1.4 4.3 2.3 2.3 2.1 3.1 3.5 1.2 3.2 1.2 5.2c0 2.1-0.4 4.1-1.1 5.9s-1.7 3.4-3.1 4.8c-1.3 1.4-3 2.4-4.9 3.2-2.1 0.7-4.4 1.1-6.8 1.1" fill="#3E444D"/>
<path d="m54 60.8c-2.1 0-3.9-0.6-5.1-1.8s-1.9-3.2-1.9-5.8v-25.5h-5.3c-0.7 0-1-0.4-1-0.8v-0.7l6.3-0.1 0.3-13.5c0-0.2 0.1-0.4 0.1-0.6 0.1-0.3 0.4-0.4 0.7-0.4h0.7v14.5h11.9v1.6h-11.9v25.5c0 1.1 0.1 2.1 0.4 2.8s0.6 1.4 1.1 1.8c0.5 0.5 1 0.8 1.6 1s1.3 0.3 2 0.3c0.9 0 1.7-0.1 2.4-0.4s1.3-0.6 1.8-0.9 0.9-0.7 1.2-0.9c0.4-0.4 0.7-0.6 1-0.6 0.2 0 0.4 0 0.6 0.3l0.4 0.4-0.2 0.3c-0.4 0.5-0.8 1-1.4 1.4-0.5 0.4-1.1 0.8-1.8 1.1-0.6 0.3-1.3 0.6-2 0.7-0.5 0.2-1.2 0.3-1.9 0.3" fill="#3E444D"/>
<path d="m72.8 73l6.2-13.8-15.3-34.6h1.3c0.3 0 0.6 0.1 0.8 0.3s0.3 0.3 0.4 0.5c-0.1 0 13.8 31.6 13.8 31.6l13.9-31.7c0.3-0.6 0.8-0.8 1.1-0.8h1.2l-20.9 47.5c-0.1 0.2-0.2 0.4-0.4 0.6-0.2 0.3-0.5 0.4-0.9 0.4h-1.2z" fill="#3E444D"/>
<rect y="8.2" x="100.5" height="52" width="1.8" fill="#3E444D"/>
<path d="m125.3 60.7c-2.4 0-4.7-0.4-6.6-1.3s-3.6-2.1-5-3.8c-1.3-1.6-2.4-3.6-3.1-6-0.7-2.3-1.1-5-1.1-7.9 0-2.6 0.4-5 1.1-7.2s1.7-4.1 3.1-5.6c1.3-1.6 3-2.8 4.9-3.6 1.9-0.9 4.2-1.3 6.6-1.3 1.9 0 3.7 0.3 5.3 1s3.1 1.7 4.3 3 2.2 3 2.8 4.9c0.7 1.9 1 4.1 1 6.6 0 0.3-0.1 0.5-0.3 0.6s-0.4 0.2-0.6 0.2h-26.4v0.5 1c0 2.8 0.3 5.4 1 7.5s1.6 4 2.8 5.4 2.7 2.5 4.4 3.3 3.7 1.1 5.8 1.1c1.9 0 3.6-0.2 4.9-0.6 1.4-0.4 2.5-0.9 3.4-1.4s1.6-1 2-1.4c0.7-0.6 1-0.8 1.2-0.8s0.4 0 0.6 0.3l0.4 0.4-0.3 0.3c-0.4 0.5-1.1 1.1-1.9 1.6s-1.8 1.1-2.9 1.5c-1.1 0.5-2.3 0.8-3.6 1.1-1 0.4-2.4 0.6-3.8 0.6m11.6-22c0-2-0.3-3.8-0.9-5.4-0.6-1.7-1.4-3.1-2.5-4.2-1-1.1-2.3-2-3.7-2.6s-3-0.9-4.6-0.9c-2 0-3.8 0.3-5.4 1-1.6 0.6-3 1.6-4.2 2.7-1.2 1.2-2.1 2.6-2.8 4.3-0.6 1.5-1.1 3.2-1.3 5.1h25.4z" fill="#3E444D"/>
<path d="m101.6 137.4c-3.4 0-6.5-0.6-9.4-1.8s-5.4-2.9-7.5-5.2c-2.1-2.2-3.7-5-4.9-8.2s-1.7-6.8-1.7-10.8c0-3.8 0.6-7.4 1.7-10.5 1.2-3.2 2.8-5.9 5-8.2 2.1-2.3 4.7-4.1 7.7-5.3s6.3-1.9 9.8-1.9c1.8 0 3.5 0.1 4.9 0.4 1.5 0.2 2.9 0.6 4.1 1.1 1.3 0.5 2.5 1.1 3.7 1.9 1.1 0.7 2.3 1.6 3.5 2.6l0.3 0.3-0.3 0.5c-0.3 0.3-0.5 0.4-0.7 0.4-0.3 0-0.6-0.2-1.1-0.5-0.3-0.3-0.7-0.6-1.3-1-0.5-0.4-1.2-0.8-1.9-1.3-0.8-0.5-1.7-0.9-2.7-1.3-1.1-0.4-2.3-0.7-3.7-1s-3-0.4-4.8-0.4c-3.3 0-6.3 0.6-9.1 1.7-2.7 1.1-5.1 2.7-7.1 4.8s-3.5 4.7-4.6 7.6c-1.1 3-1.7 6.4-1.7 10.1 0 3.8 0.6 7.2 1.7 10.2s2.6 5.5 4.6 7.6c1.9 2.1 4.2 3.7 6.9 4.8 2.6 1.1 5.5 1.6 8.6 1.6 2 0 3.8-0.1 5.3-0.4s3-0.7 4.2-1.2c1.3-0.5 2.5-1.2 3.6-2s2.2-1.7 3.3-2.7c0.1-0.1 0.3-0.3 0.6-0.3 0.2 0 0.4 0.1 0.6 0.2l0.7 0.6-0.4 0.4c-1.1 1-2.2 2-3.4 2.8-1.2 0.9-2.6 1.6-4 2.2s-3.1 1.1-4.8 1.4-3.6 0.8-5.7 0.8" fill="#3E444D"/>
<rect y="84.8" x="128.2" height="52" width="1.8" fill="#3E444D"/>
<path d="m147.3 137.4c-1.1 0-2.2-0.2-3.3-0.5s-2.1-0.9-3-1.6-1.6-1.7-2.2-2.9-0.8-2.6-0.8-4.2c0-1.7 0.5-3.2 1.5-4.5s2.4-2.4 4.4-3.3c1.9-0.9 4.3-1.6 7.2-2.1 2.8-0.5 6.1-0.8 9.8-0.9v-4c0-1.8-0.2-3.4-0.6-4.8s-1-2.6-1.7-3.5-1.7-1.7-2.8-2.2-2.4-0.8-3.9-0.8c-1.2 0-2.3 0.1-3.2 0.4-1 0.3-1.8 0.6-2.6 0.9-0.7 0.4-1.4 0.8-2 1.2s-1.1 0.8-1.5 1.2-0.8 0.7-1 0.9c-0.4 0.4-0.6 0.5-0.9 0.5s-0.5-0.2-0.7-0.3l-0.5-0.5 0.3-0.3c1.7-1.8 3.6-3.2 5.4-4.2 1.9-1 4.1-1.5 6.6-1.5 1.8 0 3.4 0.3 4.8 0.9s2.5 1.5 3.4 2.6 1.5 2.5 2 4.1c0.4 1.6 0.6 3.3 0.6 5.3v23.5h-0.6c-0.6 0-1-0.4-1-1l-0.2-4.5c-0.8 0.7-1.5 1.4-2.3 2.1-1 0.9-2.1 1.6-3.2 2.2s-2.4 1.1-3.7 1.4c-1.2 0.3-2.7 0.4-4.3 0.4m13.5-18.3c-7.1 0.3-12.5 1.2-15.9 2.7-3.5 1.6-5.1 3.7-5.1 6.4 0 1.3 0.2 2.5 0.6 3.4s1 1.7 1.7 2.3 1.5 1.1 2.4 1.4 1.9 0.5 2.8 0.5c1.6 0 3-0.2 4.3-0.5 1.3-0.4 2.5-0.9 3.6-1.5s2.1-1.3 3-2.2c0.9-0.8 1.8-1.6 2.6-2.5v-10z" fill="#3E444D"/>
<path d="m179.2 137.4c-1.3 0-2.4-0.1-3.4-0.3s-2-0.5-2.8-0.9c-0.9-0.4-1.7-0.8-2.4-1.4-0.7-0.5-1.5-1.1-2.2-1.8l-0.4-0.3 0.6-0.6 0.2-0.2c0.1-0.1 0.3-0.1 0.5-0.1 0.3 0 0.7 0.2 1.2 0.7 0.4 0.4 1 0.8 1.7 1.3s1.7 0.9 2.8 1.3 2.5 0.6 4.2 0.6c1.6 0 3.1-0.2 4.4-0.7 1.2-0.5 2.3-1.1 3.2-1.9 0.8-0.8 1.5-1.8 1.9-2.9s0.7-2.3 0.7-3.5-0.3-2.3-0.8-3.1c-0.6-0.8-1.3-1.5-2.2-2.1s-2-1.1-3.2-1.5-2.5-0.8-3.7-1.2c-1.3-0.4-2.5-0.8-3.8-1.2s-2.4-1-3.4-1.6c-1-0.7-1.8-1.5-2.5-2.5-0.6-1-1-2.2-1-3.7 0-1.2 0.3-2.4 0.8-3.5s1.3-2.1 2.3-3c1-0.8 2.2-1.5 3.5-2 1.4-0.5 2.9-0.8 4.5-0.8 2 0 3.8 0.3 5.3 0.8s3 1.5 4.5 2.7l0.3 0.3-0.4 0.6c-0.2 0.3-0.4 0.4-0.7 0.4s-0.7-0.2-1.1-0.6c-0.3-0.3-0.9-0.6-1.5-1-0.7-0.4-1.5-0.7-2.6-1-1-0.3-2.3-0.5-3.8-0.5-1.4 0-2.7 0.2-3.9 0.6s-2.2 1-3 1.7-1.5 1.5-1.9 2.4c-0.5 0.9-0.7 1.9-0.7 2.8 0 1.1 0.3 2.1 0.8 2.9s1.3 1.5 2.2 2c0.9 0.6 2 1 3.2 1.4s2.5 0.8 3.8 1.2 2.5 0.8 3.8 1.2c1.3 0.5 2.4 1 3.4 1.7s1.8 1.6 2.5 2.6c0.6 1 1 2.3 1 3.8s-0.3 2.9-0.8 4.2-1.3 2.5-2.3 3.4c-1 1-2.3 1.7-3.7 2.3-1.6 0.7-3.3 1-5.1 1" fill="#3E444D"/>
<path d="m206.6 137.4c-1.3 0-2.4-0.1-3.4-0.3s-2-0.5-2.8-0.9c-0.9-0.4-1.7-0.8-2.4-1.4-0.7-0.5-1.5-1.1-2.2-1.8l-0.4-0.3 0.6-0.6 0.2-0.2c0.1-0.1 0.3-0.1 0.5-0.1 0.3 0 0.7 0.2 1.2 0.7 0.4 0.4 1 0.8 1.7 1.3s1.7 0.9 2.8 1.3 2.5 0.6 4.2 0.6c1.6 0 3.1-0.2 4.4-0.7 1.2-0.5 2.3-1.1 3.2-1.9 0.8-0.8 1.5-1.8 1.9-2.9s0.7-2.3 0.7-3.5-0.3-2.3-0.8-3.1c-0.6-0.8-1.3-1.5-2.2-2.1s-2-1.1-3.2-1.5-2.5-0.8-3.7-1.2c-1.3-0.4-2.5-0.8-3.8-1.2s-2.4-1-3.4-1.6c-1-0.7-1.8-1.5-2.5-2.5-0.6-1-1-2.2-1-3.7 0-1.2 0.3-2.4 0.8-3.5s1.3-2.1 2.3-3c1-0.8 2.2-1.5 3.5-2 1.4-0.5 2.9-0.8 4.5-0.8 2 0 3.8 0.3 5.3 0.8s3 1.5 4.5 2.7l0.3 0.3-0.4 0.6c-0.2 0.3-0.4 0.4-0.7 0.4s-0.7-0.2-1.1-0.6c-0.3-0.3-0.9-0.6-1.5-1-0.7-0.4-1.5-0.7-2.6-1-1-0.3-2.3-0.5-3.8-0.5-1.4 0-2.7 0.2-3.9 0.6s-2.2 1-3 1.7-1.5 1.5-1.9 2.4c-0.5 0.9-0.7 1.9-0.7 2.8 0 1.1 0.3 2.1 0.8 2.9s1.3 1.5 2.2 2c0.9 0.6 2 1 3.2 1.4s2.5 0.8 3.8 1.2 2.5 0.8 3.8 1.2c1.3 0.5 2.4 1 3.4 1.7s1.8 1.6 2.5 2.6c0.6 1 1 2.3 1 3.8s-0.3 2.9-0.8 4.2-1.3 2.5-2.3 3.4c-1 1-2.3 1.7-3.7 2.3-1.6 0.7-3.2 1-5.1 1" fill="#3E444D"/>
<path d="m58.9 126c-1.1-2.2-2.8-4.6-5-7 0.9-3.8 1.4-8.1 1.5-12.9h5.4v-1.3h-13.4v1.3h6c-0.1 3.8-0.5 7.5-1.3 11.2-2.3-2.2-6.3-5.2-12-8.9-2.7-1.7-4.6-2.9-5.6-3.5 8.2-2.9 12.3-7 12.3-12.4 0-3.1-1.3-5.6-3.8-7.4s-6.3-2.8-11.4-2.8-9.3 1.2-12.7 3.7c-3.4 2.5-5.1 6.1-5.1 10.9s2.2 9.3 6.7 13.3c-4.3 1-7.4 2.5-9.3 4.6-1.8 2.1-2.8 4.8-2.8 8.3 0 4.9 2 8.6 6 10.9s9.4 3.4 16.2 3.4 12.1-2.2 16-6.7c2.7 3.6 4.1 7.2 4.1 10.7v1.1c-0.2 5.1-2.1 11.4-7.8 11.4-1.2 0-2.2-0.2-3-0.4-1.2-0.7-1.9-1.8-2.2-2.5 0.5 0.2 1.1 0.4 2 0.4 3.1 0 5.2-2.2 5.2-4.5 0-2.9-2.4-5.3-5.9-5.3h-1.9c-3.9 0-5.9 3.1-5.9 6.8 0 5.5 5 7.6 11.4 7.6 11.1 0 18.4-7.9 18.4-20.9 0.2-3.4-1-6.8-2.1-9.1zm-32.5-40.3c1.4-1.2 3-1.8 5-1.8 4.4 0 6.7 3 6.7 9 0 3.1-0.3 5.4-0.8 7s-1.9 2.9-4 4.1c-3.5-2.4-5.8-4.4-7-6.1s-1.8-3.8-1.8-6.4c-0.2-2.7 0.5-4.6 1.9-5.8zm6.3 49.7c-4.1 0-7.1-1.1-9.1-3.3s-3-5.8-3-10.8 0.4-8.3 1.1-9.9c2 1.7 6.6 5 13.9 9.8 4.2 2.9 7.5 5.5 9.9 8-3.1 4.1-7.4 6.2-12.8 6.2z" fill="#3E444D"/>
</svg>
