<?xml version="1.0" encoding="utf-8"?>
<!-- Generator: Adobe Illustrator 17.1.0, SVG Export Plug-In . SVG Version: 6.00 Build 0)  -->
<svg version="1.2" baseProfile="tiny" xmlns="http://www.w3.org/2000/svg" xmlns:xlink="http://www.w3.org/1999/xlink" x="0px"
	 y="0px" viewBox="0 0 16 16" xml:space="preserve">
<g id="Dribbble" display="none">
	<path display="inline" d="M8,15.9c-4.4,0-7.9-3.5-7.9-7.9c0-4.4,3.5-7.9,7.9-7.9c4.4,0,7.9,3.5,7.9,7.9C15.9,12.4,12.4,15.9,8,15.9
		z M14.7,9.1c-0.2-0.1-2.1-0.6-4.2-0.3c0.9,2.4,1.2,4.4,1.3,4.8C13.3,12.6,14.4,11,14.7,9.1z M10.7,14.3c-0.1-0.6-0.5-2.7-1.4-5.1
		l0,0c-3.8,1.3-5.2,4-5.3,4.2C5,14.3,6.5,14.8,8,14.8C9,14.8,9.9,14.6,10.7,14.3z M3,12.6c0.2-0.3,2-3.3,5.5-4.5
		C8.6,8.1,8.7,8,8.8,8C8.6,7.6,8.4,7.2,8.2,6.9c-3.4,1-6.6,1-6.9,1c0,0.1,0,0.1,0,0.2C1.3,9.8,1.9,11.4,3,12.6z M1.4,6.7
		c0.3,0,3.1,0,6.2-0.8c-1.1-2-2.3-3.7-2.5-3.9C3.3,2.8,1.9,4.6,1.4,6.7z M6.4,1.5c0.2,0.2,1.4,1.9,2.5,4c2.4-0.9,3.4-2.3,3.5-2.4
		C11.3,1.9,9.7,1.3,8,1.3C7.5,1.3,7,1.4,6.4,1.5z M13.3,3.8C13.1,4,12,5.4,9.5,6.4c0.2,0.3,0.3,0.6,0.4,1c0,0.1,0.1,0.2,0.1,0.3
		c2.2-0.3,4.5,0.2,4.7,0.2C14.8,6.4,14.2,4.9,13.3,3.8z"/>
</g>
<g id="Facebook" display="none">
	<path display="inline" d="M14,0.1H1.9C0.9,0.1,0,0.9,0,1.9v12.1c0,1,0.8,1.9,1.9,1.9H14c1,0,1.9-0.8,1.9-1.9V1.9
		C15.9,0.9,15.1,0.1,14,0.1z M14.5,3.4l-1.4,0c-1.1,0-1.3,0.5-1.3,1.3v1.6h2.6l-0.3,2.6h-2.2v6.6H9.2V8.9H7V6.3h2.2V4.4
		c0-2.2,1.3-3.4,3.3-3.4c0.9,0,1.8,0.1,2,0.1V3.4z"/>
</g>
<g id="Github" display="none">
	<path display="inline" fill-rule="evenodd" d="M8,0.3c-4.4,0-7.9,3.5-7.9,7.9c0,3.5,2.3,6.4,5.4,7.5C5.9,15.7,6,15.5,6,15.3
		c0-0.2,0-0.7,0-1.3c-2.2,0.5-2.7-1.1-2.7-1.1C3,12,2.5,11.7,2.5,11.7c-0.7-0.5,0.1-0.5,0.1-0.5C3.3,11.3,3.8,12,3.8,12
		c0.7,1.2,1.8,0.9,2.3,0.7c0.1-0.5,0.3-0.9,0.5-1.1C4.8,11.4,3,10.8,3,7.7c0-0.9,0.3-1.6,0.8-2.1c-0.1-0.2-0.4-1,0.1-2.1
		c0,0,0.7-0.2,2.2,0.8c0.6-0.2,1.3-0.3,2-0.3c0.7,0,1.3,0.1,2,0.3c1.5-1,2.2-0.8,2.2-0.8c0.4,1.1,0.2,1.9,0.1,2.1
		C12.7,6.2,13,6.9,13,7.7c0,3-1.8,3.7-3.6,3.9c0.3,0.2,0.5,0.7,0.5,1.5c0,1.1,0,1.9,0,2.2c0,0.2,0.1,0.5,0.5,0.4
		c3.1-1,5.4-4,5.4-7.5C15.9,3.8,12.4,0.3,8,0.3z"/>
</g>
<g id="LinkedIn" display="none">
	<g display="inline">
		<path d="M8.6,7.2L8.6,7.2C8.6,7.2,8.6,7.2,8.6,7.2L8.6,7.2z"/>
		<path d="M14.8,0H1.2C0.6,0,0.1,0.5,0.1,1.2v13.7c0,0.6,0.5,1.1,1.2,1.1h13.5c0.6,0,1.2-0.5,1.2-1.1V1.2C15.9,0.5,15.4,0,14.8,0z
			 M4.9,13.4H2.5V6.2h2.4V13.4z M3.7,5.2L3.7,5.2c-0.8,0-1.3-0.6-1.3-1.2c0-0.7,0.5-1.2,1.4-1.2C4.5,2.7,5,3.2,5,3.9
			C5,4.6,4.5,5.2,3.7,5.2z M13.5,13.4h-2.4V9.5c0-1-0.3-1.6-1.2-1.6c-0.7,0-1.1,0.4-1.2,0.9C8.6,8.9,8.6,9.1,8.6,9.4v4H6.2
			c0,0,0-6.5,0-7.2h2.4v1C8.9,6.7,9.5,6,10.8,6c1.6,0,2.8,1,2.8,3.2V13.4z"/>
	</g>
</g>
<g id="Twitter" display="none">
	<path display="inline" d="M15.8,3.2c-0.6,0.3-1.2,0.4-1.8,0.5c0.7-0.4,1.2-1,1.4-1.8c-0.6,0.4-1.3,0.6-2,0.8c-0.6-0.6-1.4-1-2.3-1
		c-1.8,0-3.2,1.4-3.2,3.2c0,0.3,0,0.5,0.1,0.7c-2.7-0.1-5-1.4-6.6-3.3C1,2.7,0.9,3.3,0.9,3.9c0,1.1,0.6,2.1,1.4,2.7
		c-0.5,0-1-0.2-1.4-0.4v0c0,1.6,1.1,2.8,2.6,3.1C3.1,9.4,2.8,9.4,2.6,9.4c-0.2,0-0.4,0-0.6-0.1c0.4,1.3,1.6,2.2,3,2.2
		c-1.1,0.9-2.5,1.4-4,1.4c-0.3,0-0.5,0-0.8,0c1.4,0.9,3.1,1.4,4.9,1.4c5.9,0,9.1-4.9,9.1-9.1c0-0.1,0-0.3,0-0.4
		C14.8,4.4,15.4,3.8,15.8,3.2z"/>
</g>
<g id="www">
	<path d="M8.2,0.1c0,0-0.3,0-0.3,0c-4.2,0-7.6,3.4-7.8,7.6h0v0.7h0c0.2,4.2,3.6,7.6,7.9,7.6c4.4,0,7.9-3.5,7.9-7.9
		C15.9,3.7,12.5,0.3,8.2,0.1z M15.2,7.7h-3c0-1-0.2-2-0.6-3c0.7-0.3,1.5-0.6,2.1-1c0.4,0.5,0.6,1,0.9,1.5C15,6,15.2,6.8,15.2,7.7z
		 M5.7,12c-0.1-0.1-0.1-0.3-0.2-0.4c0.7-0.2,1.5-0.3,2.2-0.3v3.3C6.8,13.8,6.2,13,5.7,12z M10.5,3.9c0.1,0.1,0.1,0.2,0.2,0.4
		C10,4.5,9.2,4.6,8.3,4.6V1.1C9.3,1.9,10,2.9,10.5,3.9z M7.7,1.3v3.4c-0.8,0-1.5-0.1-2.3-0.3C5.5,4.2,5.6,4,5.6,3.9
		C6.1,2.9,6.8,2,7.7,1.3z M7.7,5.3v2.4h-3c0-0.9,0.2-1.8,0.5-2.7C6,5.2,6.8,5.3,7.7,5.3z M7.7,8.4v2.3c-0.8,0-1.7,0.1-2.5,0.3
		c-0.3-0.8-0.5-1.7-0.6-2.6H7.7z M8.3,14.8v-3.5c0.8,0,1.6,0.1,2.4,0.3c-0.1,0.1-0.1,0.2-0.2,0.3C10,13.1,9.3,14,8.3,14.8z
		 M8.3,10.7V8.4h3.2c0,0.9-0.2,1.8-0.6,2.7C10.1,10.8,9.3,10.7,8.3,10.7z M8.3,7.7V5.3c0.9,0,1.8-0.2,2.7-0.4
		c0.3,0.9,0.5,1.8,0.6,2.8H8.3z M10.8,1.4c0.9,0.4,1.6,0.9,2.3,1.5c0.1,0.1,0.2,0.2,0.2,0.2c-0.6,0.4-1.3,0.7-1.9,0.9
		c-0.1-0.2-0.2-0.3-0.2-0.5c-0.5-1-1.2-1.9-2-2.7C9.7,1,10.3,1.1,10.8,1.4z M5.2,1.4c0.6-0.3,1.2-0.4,1.9-0.5C6.2,1.7,5.6,2.6,5,3.6
		C4.9,3.8,4.8,4,4.7,4.2C4,4,3.3,3.6,2.6,3.3C2.7,3.1,2.8,3,2.9,2.9C3.6,2.3,4.3,1.7,5.2,1.4z M1.3,5.2c0.2-0.5,0.5-1,0.8-1.4
		c0.7,0.4,1.5,0.8,2.3,1C4.2,5.7,4,6.7,3.9,7.7H0.8C0.8,6.8,1,6,1.3,5.2z M0.8,8.4H4c0,1,0.2,1.9,0.6,2.8c-0.8,0.3-1.6,0.6-2.4,1.1
		c-0.3-0.4-0.6-0.9-0.8-1.4C1,10.1,0.8,9.2,0.8,8.4z M2.9,13.1c-0.1-0.1-0.2-0.2-0.3-0.4c0.7-0.4,1.4-0.7,2.2-1
		C4.9,12,5,12.2,5.1,12.3c0.6,1.1,1.3,2,2.3,2.9c-0.7-0.1-1.4-0.2-2.1-0.5C4.3,14.3,3.6,13.8,2.9,13.1z M10.8,14.7
		c-0.6,0.3-1.2,0.4-1.9,0.5c0.9-0.8,1.7-1.8,2.2-2.8c0.1-0.2,0.2-0.3,0.2-0.5c0.7,0.2,1.4,0.5,2,0.9c-0.1,0.1-0.2,0.2-0.3,0.3
		C12.4,13.8,11.7,14.3,10.8,14.7z M14.7,10.8c-0.2,0.5-0.5,1-0.8,1.4c-0.7-0.4-1.4-0.8-2.2-1c0.4-0.9,0.6-1.9,0.6-2.9h3
		C15.2,9.2,15,10.1,14.7,10.8z"/>
</g>
</svg>
