<?xml version="1.0" encoding="UTF-8" standalone="no"?>
<!-- Generator: Adobe Illustrator 14.0.0, SVG Export Plug-In . SVG Version: 6.00 Build 43363)  -->
<svg id="Layer_1" xmlns="http://www.w3.org/2000/svg" width="528px" xml:space="preserve" height="150px" viewBox="0 0 528 150" baseProfile="tiny" version="1.2" y="0px" x="0px" xmlns:xlink="http://www.w3.org/1999/xlink">
	<path d="m264 23.697c-28.334 0-51.303 22.969-51.303 51.303s22.969 51.304 51.303 51.304 51.303-22.97 51.303-51.304c0-28.33-22.97-51.299-51.3-51.299" fill="#753C51"/>
	<path d="m264 23.697c-28.334 0-51.303 22.969-51.303 51.303s22.969 51.304 51.303 51.304 51.303-22.97 51.303-51.304c0-28.33-22.97-51.299-51.3-51.299" fill="#753C51"/>
	<path d="m81.728 97.283c-1.706 0-3.256-0.153-4.607-0.454-1.354-0.301-2.614-0.744-3.746-1.316-1.128-0.569-2.18-1.271-3.126-2.085-0.938-0.805-1.851-1.735-2.715-2.768l-0.275-0.328 0.444-0.444c0.092-0.091 0.168-0.157 0.229-0.203 0.129-0.098 0.302-0.146 0.527-0.146 0.292 0 0.58 0.178 0.964 0.595 0.267 0.291 0.634 0.663 1.1 1.117s1.026 0.938 1.665 1.439c0.631 0.498 1.415 0.975 2.329 1.42 0.909 0.443 1.97 0.814 3.153 1.102 1.175 0.286 2.54 0.432 4.058 0.432 2.224 0 4.223-0.358 5.943-1.066 1.72-0.705 3.197-1.668 4.389-2.861 1.189-1.188 2.109-2.598 2.734-4.186 0.626-1.594 0.944-3.315 0.944-5.116 0-1.489-0.233-2.788-0.69-3.861-0.459-1.073-1.088-2.01-1.868-2.778-0.792-0.78-1.728-1.458-2.781-2.013-1.081-0.569-2.249-1.086-3.474-1.536-1.247-0.459-2.527-0.885-3.805-1.269-1.305-0.39-2.604-0.829-3.863-1.305-1.26-0.475-2.468-1.027-3.589-1.641-1.139-0.624-2.149-1.393-3.004-2.286-0.866-0.902-1.56-1.989-2.065-3.234-0.505-1.243-0.761-2.729-0.761-4.416 0-1.64 0.309-3.232 0.921-4.734 0.612-1.507 1.519-2.855 2.696-4.007 1.175-1.151 2.641-2.079 4.358-2.761 1.715-0.682 3.701-1.027 5.902-1.027 2.465 0 4.681 0.407 6.585 1.208 1.906 0.801 3.719 2.09 5.389 3.832l0.259 0.27-0.35 0.525c-0.293 0.354-0.582 0.42-0.778 0.42-0.369 0-0.764-0.264-1.322-0.881-0.411-0.456-1.027-0.961-1.831-1.505-0.805-0.544-1.864-1.058-3.145-1.527-1.269-0.464-2.886-0.699-4.807-0.699-1.964 0-3.726 0.305-5.238 0.908-1.508 0.6-2.787 1.408-3.802 2.4s-1.797 2.157-2.325 3.461c-0.53 1.31-0.799 2.694-0.799 4.117 0 1.823 0.354 3.356 1.054 4.556 0.709 1.216 1.651 2.254 2.798 3.085 1.166 0.846 2.525 1.56 4.039 2.122 1.543 0.573 3.137 1.133 4.739 1.663 1.622 0.537 3.228 1.107 4.773 1.691 1.593 0.603 3.028 1.383 4.267 2.317 1.252 0.945 2.279 2.128 3.053 3.516 0.781 1.4 1.177 3.167 1.177 5.248 0 2.083-0.358 4.055-1.061 5.863-0.706 1.812-1.744 3.418-3.084 4.771-1.34 1.354-3.005 2.433-4.947 3.209-1.939 0.772-4.17 1.166-6.631 1.166" fill="#3E444D"/>
	<path d="m112.52 97.283c-2.149 0-3.87-0.605-5.113-1.796-1.248-1.198-1.882-3.161-1.882-5.837v-25.505h-5.281c-0.71 0-0.963-0.423-0.963-0.82v-0.668l6.254-0.143 0.274-13.532c0-0.19 0.05-0.38 0.149-0.556 0.139-0.252 0.385-0.399 0.672-0.399h0.68v14.477h11.85v1.641h-11.85v25.505c0 1.124 0.14 2.08 0.415 2.839 0.271 0.747 0.645 1.356 1.112 1.812 0.468 0.458 1.018 0.799 1.635 1.011 0.634 0.218 1.323 0.33 2.048 0.33 0.927 0 1.744-0.145 2.43-0.427 0.71-0.294 1.321-0.612 1.814-0.947 0.495-0.339 0.898-0.655 1.197-0.945 0.438-0.42 0.732-0.591 1.016-0.591 0.153 0 0.383 0.048 0.613 0.277l0.428 0.431-0.242 0.321c-0.376 0.502-0.839 0.978-1.374 1.412-0.536 0.438-1.127 0.814-1.756 1.122-0.625 0.308-1.302 0.552-2.01 0.727-0.69 0.173-1.41 0.261-2.11 0.261" fill="#3E444D"/>
	<path d="m131.39 109.49l6.168-13.842-15.25-34.634h1.212c0.307 0 0.567 0.094 0.773 0.279 0.171 0.155 0.295 0.326 0.369 0.51 0 0 13.854 31.615 13.866 31.641 0.012-0.025 13.871-31.654 13.871-31.654 0.321-0.645 0.756-0.776 1.066-0.776h1.21l-20.793 47.416c-0.08 0.214-0.215 0.439-0.392 0.646-0.231 0.271-0.538 0.412-0.887 0.412h-1.22z" fill="#3E444D"/>
	<rect y="44.693" x="159.1" height="52.023" width="1.785" fill="#3E444D"/>
	<path d="m183.91 97.142c-2.444 0-4.668-0.437-6.611-1.3-1.949-0.864-3.624-2.13-4.977-3.765-1.347-1.626-2.396-3.638-3.12-5.979-0.72-2.327-1.085-5-1.085-7.941 0-2.594 0.354-5 1.052-7.151 0.701-2.167 1.734-4.054 3.069-5.608 1.341-1.558 3.002-2.786 4.936-3.65 1.933-0.863 4.152-1.302 6.594-1.302 1.872 0 3.651 0.341 5.286 1.012 1.641 0.674 3.088 1.686 4.3 3.007 1.208 1.318 2.165 2.952 2.845 4.859 0.678 1.901 1.021 4.109 1.021 6.562 0 0.268-0.113 0.497-0.318 0.646-0.165 0.116-0.358 0.175-0.574 0.175h-26.406c-0.014 0.167-0.021 0.332-0.021 0.492v0.959c0 2.826 0.339 5.352 1.008 7.507 0.664 2.142 1.619 3.961 2.838 5.408 1.212 1.439 2.694 2.549 4.407 3.296 1.717 0.752 3.653 1.133 5.756 1.133 1.907 0 3.563-0.208 4.921-0.619 1.366-0.413 2.517-0.877 3.421-1.38 0.899-0.501 1.588-0.959 2.048-1.363 0.715-0.627 1.008-0.754 1.248-0.754 0.152 0 0.383 0.048 0.613 0.279l0.439 0.439-0.265 0.326c-0.432 0.532-1.068 1.082-1.893 1.636-0.817 0.547-1.787 1.059-2.884 1.516-1.094 0.457-2.308 0.836-3.608 1.126-1.32 0.287-2.68 0.434-4.05 0.434m11.59-22.007c-0.04-1.997-0.339-3.798-0.891-5.357-0.591-1.67-1.423-3.089-2.474-4.22-1.048-1.126-2.3-1.995-3.722-2.583-1.427-0.588-2.991-0.886-4.647-0.886-2.011 0-3.845 0.329-5.448 0.977-1.602 0.648-3 1.567-4.154 2.734-1.159 1.169-2.098 2.605-2.793 4.268-0.641 1.534-1.081 3.235-1.31 5.067h25.43z" fill="#3E444D"/>
	<path d="m353.68 97.283c-3.383 0-6.547-0.604-9.404-1.792-2.863-1.19-5.376-2.929-7.47-5.167-2.092-2.237-3.741-4.981-4.904-8.16-1.161-3.169-1.749-6.785-1.749-10.75 0-3.824 0.588-7.363 1.749-10.522 1.163-3.165 2.832-5.922 4.958-8.193 2.13-2.274 4.715-4.054 7.682-5.292 2.966-1.236 6.28-1.863 9.849-1.863 1.812 0 3.473 0.121 4.936 0.361 1.467 0.24 2.859 0.613 4.138 1.107 1.276 0.494 2.503 1.124 3.652 1.872 1.135 0.741 2.301 1.611 3.468 2.588l0.306 0.256-0.311 0.518c-0.267 0.343-0.536 0.404-0.72 0.404-0.312 0-0.65-0.165-1.066-0.52-0.312-0.266-0.73-0.597-1.255-0.994-0.518-0.389-1.167-0.822-1.93-1.285-0.75-0.454-1.666-0.883-2.723-1.274-1.061-0.391-2.307-0.724-3.704-0.99-1.398-0.266-3.012-0.4-4.791-0.4-3.282 0-6.332 0.567-9.066 1.686-2.728 1.117-5.108 2.739-7.075 4.82-1.97 2.085-3.529 4.652-4.639 7.63-1.11 2.985-1.673 6.38-1.673 10.091 0 3.784 0.558 7.215 1.655 10.198 1.098 2.979 2.635 5.54 4.568 7.614 1.935 2.069 4.249 3.674 6.882 4.765 2.638 1.095 5.543 1.649 8.638 1.649 1.977 0 3.764-0.141 5.312-0.419 1.545-0.275 2.976-0.685 4.249-1.213 1.276-0.527 2.475-1.186 3.565-1.955 1.094-0.771 2.207-1.672 3.306-2.677 0.12-0.12 0.33-0.3 0.599-0.3 0.221 0 0.421 0.085 0.579 0.245l0.672 0.595-0.357 0.351c-1.054 1.028-2.201 1.981-3.41 2.834-1.215 0.853-2.563 1.598-4.006 2.212-1.444 0.613-3.051 1.1-4.775 1.446-1.75 0.348-3.68 0.524-5.76 0.524" fill="#3E444D"/>
	<rect y="44.693" x="380.32" height="52.023" width="1.784" fill="#3E444D"/>
	<path d="m399.38 97.283c-1.081 0-2.184-0.168-3.273-0.499-1.108-0.336-2.123-0.878-3.018-1.61-0.9-0.739-1.641-1.699-2.199-2.854-0.562-1.16-0.846-2.583-0.846-4.229 0-1.657 0.49-3.163 1.456-4.48 0.951-1.298 2.42-2.417 4.366-3.323 1.906-0.887 4.338-1.598 7.229-2.111 2.761-0.49 6.056-0.792 9.799-0.9v-4.015c0-1.77-0.198-3.376-0.587-4.771-0.383-1.378-0.952-2.552-1.69-3.492-0.729-0.929-1.662-1.653-2.77-2.151-1.116-0.503-2.437-0.758-3.926-0.758-1.184 0-2.266 0.127-3.216 0.375-0.96 0.253-1.827 0.564-2.576 0.927-0.746 0.362-1.406 0.763-1.958 1.191-0.565 0.438-1.064 0.849-1.483 1.222-0.417 0.371-0.754 0.684-1.01 0.939-0.373 0.373-0.635 0.527-0.896 0.527-0.3 0-0.534-0.2-0.684-0.35l-0.464-0.463 0.312-0.33c1.732-1.827 3.552-3.243 5.41-4.208 1.882-0.977 4.091-1.472 6.565-1.472 1.829 0 3.439 0.299 4.783 0.891 1.353 0.595 2.492 1.465 3.388 2.584 0.888 1.108 1.549 2.473 1.967 4.056 0.411 1.56 0.619 3.336 0.619 5.283v23.457h-0.609c-0.594 0-0.963-0.396-0.963-1.034l-0.171-4.54c-0.75 0.747-1.505 1.442-2.254 2.076-1.017 0.858-2.108 1.595-3.243 2.186-1.138 0.593-2.378 1.061-3.687 1.388-1.32 0.322-2.79 0.488-4.38 0.488m13.51-18.361c-7.116 0.258-12.474 1.175-15.93 2.727-3.455 1.553-5.136 3.659-5.136 6.441 0 1.319 0.218 2.466 0.649 3.405 0.432 0.94 1.001 1.725 1.692 2.327 0.694 0.607 1.5 1.065 2.396 1.364 0.905 0.301 1.851 0.454 2.813 0.454 1.584 0 3.032-0.186 4.307-0.549 1.283-0.366 2.477-0.865 3.551-1.482 1.08-0.621 2.1-1.349 3.03-2.164 0.884-0.773 1.767-1.607 2.626-2.481v-10.042z" fill="#3E444D"/>
	<path d="m431.24 97.283c-1.281 0-2.439-0.105-3.446-0.312-1.012-0.207-1.961-0.496-2.819-0.86-0.866-0.365-1.686-0.824-2.433-1.364-0.735-0.529-1.472-1.125-2.188-1.771l-0.365-0.329 0.562-0.561c0.091-0.092 0.17-0.16 0.231-0.205 0.127-0.096 0.299-0.144 0.523-0.144 0.329 0 0.7 0.219 1.243 0.73 0.402 0.382 0.983 0.817 1.724 1.295 0.733 0.475 1.677 0.911 2.808 1.3 1.115 0.384 2.515 0.577 4.159 0.577 1.64 0 3.106-0.24 4.359-0.715 1.248-0.472 2.311-1.125 3.159-1.939 0.847-0.815 1.496-1.775 1.93-2.854 0.437-1.085 0.659-2.272 0.659-3.533 0-1.247-0.273-2.288-0.81-3.094-0.552-0.829-1.288-1.542-2.188-2.119-0.919-0.591-1.989-1.094-3.18-1.493-1.218-0.41-2.478-0.809-3.743-1.185-1.27-0.376-2.542-0.784-3.781-1.212-1.259-0.436-2.398-0.984-3.385-1.63-1.01-0.659-1.837-1.488-2.461-2.462-0.638-0.994-0.96-2.236-0.96-3.693 0-1.226 0.278-2.412 0.827-3.524 0.547-1.104 1.324-2.096 2.314-2.95 0.982-0.848 2.17-1.533 3.531-2.035 1.359-0.503 2.877-0.757 4.508-0.757 2.008 0 3.804 0.278 5.337 0.826 1.537 0.55 3.043 1.455 4.476 2.694l0.312 0.268-0.368 0.555c-0.184 0.274-0.448 0.422-0.745 0.422-0.316 0-0.669-0.183-1.14-0.594-0.34-0.297-0.852-0.636-1.519-1.008-0.663-0.372-1.521-0.722-2.554-1.044-1.014-0.316-2.293-0.476-3.799-0.476-1.404 0-2.705 0.216-3.866 0.644-1.162 0.43-2.171 1.005-2.999 1.71-0.823 0.702-1.47 1.518-1.925 2.426-0.45 0.9-0.679 1.857-0.679 2.843 0 1.15 0.27 2.115 0.803 2.871 0.55 0.783 1.285 1.455 2.184 1.999 0.925 0.558 1.995 1.039 3.186 1.427 1.227 0.402 2.478 0.796 3.753 1.187 1.265 0.387 2.537 0.807 3.78 1.249 1.265 0.45 2.404 1.023 3.391 1.705 1.007 0.695 1.834 1.561 2.456 2.568 0.635 1.03 0.956 2.312 0.956 3.812 0 1.472-0.27 2.88-0.798 4.184-0.53 1.31-1.313 2.462-2.327 3.427-1.012 0.962-2.263 1.735-3.719 2.299-1.44 0.56-3.11 0.845-4.96 0.845" fill="#3E444D"/>
	<path d="m458.7 97.283c-1.281 0-2.44-0.105-3.446-0.312-1.012-0.207-1.961-0.496-2.819-0.86-0.866-0.365-1.686-0.824-2.433-1.364-0.735-0.529-1.472-1.125-2.188-1.771l-0.365-0.329 0.562-0.561c0.092-0.092 0.17-0.16 0.232-0.205 0.127-0.096 0.299-0.144 0.523-0.144 0.328 0 0.699 0.219 1.242 0.73 0.403 0.382 0.984 0.817 1.725 1.295 0.732 0.475 1.677 0.911 2.808 1.3 1.115 0.384 2.514 0.577 4.159 0.577 1.64 0 3.105-0.24 4.359-0.715 1.248-0.472 2.311-1.125 3.158-1.939 0.848-0.815 1.497-1.775 1.931-2.854 0.437-1.085 0.659-2.272 0.659-3.533 0-1.247-0.273-2.288-0.81-3.094-0.552-0.829-1.288-1.542-2.188-2.119-0.919-0.591-1.989-1.094-3.18-1.493-1.218-0.41-2.478-0.809-3.744-1.185-1.269-0.376-2.542-0.784-3.78-1.212-1.26-0.436-2.398-0.984-3.386-1.63-1.009-0.659-1.837-1.488-2.461-2.462-0.637-0.994-0.96-2.236-0.96-3.693 0-1.226 0.279-2.412 0.828-3.524 0.546-1.104 1.325-2.096 2.314-2.95 0.981-0.848 2.171-1.533 3.531-2.035 1.359-0.503 2.877-0.757 4.508-0.757 2.008 0 3.805 0.278 5.337 0.826 1.537 0.55 3.043 1.455 4.476 2.694l0.312 0.268-0.368 0.555c-0.185 0.274-0.448 0.422-0.745 0.422-0.317 0-0.669-0.183-1.14-0.594-0.341-0.297-0.852-0.636-1.519-1.008-0.663-0.372-1.521-0.722-2.554-1.044-1.014-0.316-2.293-0.476-3.799-0.476-1.404 0-2.705 0.216-3.866 0.644-1.162 0.43-2.171 1.005-2.999 1.71-0.823 0.702-1.47 1.518-1.925 2.426-0.45 0.9-0.679 1.857-0.679 2.843 0 1.15 0.27 2.115 0.803 2.871 0.55 0.783 1.285 1.455 2.184 1.999 0.924 0.558 1.995 1.039 3.186 1.427 1.227 0.402 2.478 0.796 3.753 1.187 1.265 0.387 2.537 0.807 3.779 1.249 1.266 0.45 2.405 1.023 3.392 1.705 1.007 0.695 1.834 1.561 2.456 2.568 0.635 1.03 0.956 2.312 0.956 3.812 0 1.472-0.27 2.88-0.799 4.184-0.529 1.31-1.312 2.462-2.326 3.427-1.013 0.962-2.264 1.735-3.72 2.299-1.44 0.56-3.11 0.845-4.96 0.845" fill="#3E444D"/>
	<path d="m272.17 109.78c6.096 0 7.8-7.2 7.8-12.465 0-3.518-1.352-7.086-4.053-10.706-3.875 4.436-9.203 6.653-15.983 6.653-6.781 0-12.173-1.147-16.174-3.441-4.003-2.294-6.003-5.914-6.003-10.858 0-3.415 0.917-6.168 2.753-8.26 1.835-2.089 4.919-3.619 9.253-4.588-4.487-4.078-6.73-8.527-6.73-13.345s1.695-8.462 5.086-10.935c3.39-2.472 7.609-3.709 12.656-3.709s8.833 0.918 11.356 2.753c2.524 1.835 3.786 4.309 3.786 7.418 0 5.404-4.105 9.534-12.312 12.388 1.019 0.664 2.879 1.836 5.582 3.518 5.659 3.671 9.661 6.628 12.008 8.871 0.764-3.619 1.196-7.342 1.299-11.165h-6.041v-1.275h13.307v1.275h-5.354c-0.103 4.793-0.586 9.1-1.453 12.924 2.191 2.447 3.849 4.792 4.971 7.035 1.121 2.244 2.322 5.715 2.322 9.128 0 12.968-7.271 20.871-18.369 20.871-6.369 0-11.36-2.042-11.36-7.592 0-3.709 2.036-6.806 5.917-6.806 3.825 0 6.058 2.593 6.058 5.268 0 2.175-1.632 3.781-3.723 3.781-1.481 0-2.049-0.496-2.352-0.807-0.04 1.96 1.3 4.07 5.71 4.07m-10.4-18.502c5.404 0 9.686-2.09 12.848-6.271-2.347-2.447-5.634-5.099-9.865-7.953-7.292-4.792-11.93-8.055-13.918-9.789-0.765 1.632-1.148 4.946-1.148 9.941 0 4.997 0.995 8.592 2.983 10.782 1.99 2.195 5.02 3.29 9.1 3.29m-6.35-49.745c-1.377 1.198-2.065 3.097-2.065 5.697s0.612 4.741 1.836 6.424c1.223 1.682 3.567 3.722 7.035 6.118 2.141-1.121 3.48-2.472 4.015-4.054 0.535-1.579 0.803-3.9 0.803-6.958 0-6.015-2.218-9.024-6.653-9.024-1.96-0.001-3.61 0.599-4.99 1.797" fill="#fff"/>
	<path d="m272.42 110.2c4.165 0 7.544-3.949 7.544-12.879 0-3.518-1.352-7.086-4.053-10.706-3.875 4.436-9.203 6.653-15.983 6.653-6.781 0-12.173-1.147-16.174-3.441-4.003-2.294-6.003-5.914-6.003-10.858 0-3.415 0.917-6.168 2.753-8.26 1.835-2.089 4.919-3.619 9.253-4.588-4.487-4.078-6.73-8.527-6.73-13.345s1.695-8.462 5.086-10.935c3.39-2.472 7.609-3.709 12.656-3.709s8.833 0.918 11.356 2.753c2.524 1.835 3.786 4.309 3.786 7.418 0 5.404-4.105 9.534-12.312 12.388 1.019 0.664 2.879 1.836 5.582 3.518 5.659 3.671 9.661 6.628 12.008 8.871 0.764-3.619 1.196-7.342 1.299-11.165h-6.041v-1.275h13.307v1.275h-5.354c-0.103 4.793-0.586 9.1-1.453 12.924 2.191 2.447 3.849 4.792 4.971 7.035 1.121 2.244 2.322 5.715 2.322 9.128 0 12.968-7.785 20.5-17.827 20.5-7.75 0-10.476-4.354-10.476-7.986 0-3.232 2.51-6.054 6.392-6.054 3.513 0 5.893 2.398 5.893 5.29 0 2.25-2.125 4.5-5.226 4.5-0.896 0-1.479-0.165-1.958-0.354 0.36 1.16 2.1 3.3 5.37 3.3m-10.65-18.922c5.404 0 9.686-2.09 12.848-6.271-2.347-2.447-5.634-5.099-9.865-7.953-7.292-4.792-11.93-8.055-13.918-9.789-0.765 1.632-1.148 4.946-1.148 9.941 0 4.997 0.995 8.592 2.983 10.782 1.99 2.195 5.02 3.29 9.1 3.29m-6.35-49.745c-1.377 1.198-2.065 3.097-2.065 5.697s0.612 4.741 1.836 6.424c1.223 1.682 3.567 3.722 7.035 6.118 2.141-1.121 3.48-2.472 4.015-4.054 0.535-1.579 0.803-3.9 0.803-6.958 0-6.015-2.218-9.024-6.653-9.024-1.96-0.001-3.61 0.599-4.99 1.797" fill="#fff"/>
</svg>
